<?xml version="1.0" encoding="utf-8"?><svg id="telescope-take-off" image-rendering="auto" baseProfile="basic" version="1.1" x="0px" y="0px" width="400" height="400" xmlns="http://www.w3.org/2000/svg" xmlns:xlink="http://www.w3.org/1999/xlink"><g id="Scene-1r1" overflow="visible"><g><g id="Tween-5" transform="translate(193.7 293.05)"><animateTransform attributeName="transform" additive="replace" type="translate" dur="0.792s" keyTimes="0;.05299;.053;.10499;.105;.15799;.158;.20999;.21;.26299;.263;.31599;.316;.36799;.368;1" values="222.2,216.3;222.2,216.3;222.255,216.299;222.255,216.299;222.236,216.357;222.236,216.357;222.299,216.31;222.299,216.31;222.286,216.325;222.286,216.325;222.312,216.377;222.312,216.377;222.309,216.327;222.309,216.327;222.276,216.292;222.276,216.292" calcMode="discrete" fill="freeze"/><animateTransform attributeName="transform" additive="sum" type="rotate" dur="0.792s" keyTimes="0;.05299;.053;.10499;.105;.15799;.158;.20999;.21;.26299;.263;.31599;.316;.36799;.368;1" values="0,0,0;0,0,0;-3.245,0,0;-3.245,0,0;-6.491,0,0;-6.491,0,0;-9.736,0,0;-9.736,0,0;-12.982,0,0;-12.982,0,0;-16.227,0,0;-16.227,0,0;-19.473,0,0;-19.473,0,0;-22.718,0,0;-22.718,0,0" calcMode="discrete" fill="freeze"/><animateTransform attributeName="transform" additive="sum" type="scale" dur="0.792s" keyTimes="0;.15799;.158;1" values="1,1;1,1;1,.999;1,.999" calcMode="discrete" fill="freeze"/><animateTransform attributeName="transform" additive="sum" type="translate" dur="0.792s" keyTimes="0;.05299;.053;.10499;.105;.15799;.158;.20999;.21;.26299;.263;.31599;.316;.36799;.368;1" values="-28.5,76.75;-28.5,76.75;-28.55,76.75;-28.55,76.75;-28.55,76.7;-28.55,76.7;-28.6,76.7;-28.6,76.7;-28.6,76.6;-28.6,76.6;-28.5,76.65;-28.5,76.65;-28.5,76.7;-28.5,76.7;-28.6,76.65;-28.6,76.65" calcMode="discrete" fill="freeze"/><path fill="#131313" stroke="none" d="M35.6 -78.05L8.25 -78.05 -35.4 73.6Q-35.75 74.95 -35.15 76.15 -34.5 77.35 -33.2 77.85 -31.9 78.3 -30.65 77.75 -29.35 77.15 -28.85 75.9L35.6 -78.05Z"/><path fill="#000" stroke="none" d="M35.6 -78.05L29.6 -78.05 -32.75 77.95Q-31.55 78.2 -30.45 77.6 -29.35 77 -28.85 75.9L35.6 -78.05Z"/></g><animate attributeName="display" fill="freeze" repeatCount="1" dur="0.792s" keyTimes="0;.737;1" values="inline;none;none"/></g><g><g id="Tween-4" transform="translate(249.5 293)"><animateTransform attributeName="transform" additive="replace" type="translate" dur="0.792s" keyTimes="0;.05299;.053;.10499;.105;.15799;.158;.20999;.21;.26299;.263;.31599;.316;.36799;.368;1" values="222.75,219.5;222.75,219.5;222.798,219.515;222.798,219.515;222.804,219.535;222.804,219.535;222.796,219.626;222.796,219.626;222.764,219.501;222.764,219.501;222.815,219.518;222.815,219.518;222.835,219.617;222.835,219.617;222.748,219.549;222.748,219.549" calcMode="discrete" fill="freeze"/><animateTransform attributeName="transform" additive="sum" type="rotate" dur="0.792s" keyTimes="0;.05299;.053;.10499;.105;.15799;.158;.20999;.21;.26299;.263;.31599;.316;.36799;.368;1" values="0,0,0;0,0,0;3.029,0,0;3.029,0,0;6.059,0,0;6.059,0,0;9.088,0,0;9.088,0,0;12.118,0,0;12.118,0,0;15.146,0,0;15.146,0,0;18.177,0,0;18.177,0,0;21.206,0,0;21.206,0,0" calcMode="discrete" fill="freeze"/><animateTransform attributeName="transform" additive="sum" type="scale" dur="0.792s" keyTimes="0;.15799;.158;1" values="1,1;1,1;1,.999;1,.999" calcMode="discrete" fill="freeze"/><animateTransform attributeName="transform" additive="sum" type="translate" dur="0.792s" keyTimes="0;.05299;.053;.10499;.105;.15799;.158;.20999;.21;.26299;.263;.31599;.316;.36799;.368;1" values="26.75,73.5;26.75,73.5;26.7,73.5;26.7,73.5;26.7,73.45;26.7,73.45;26.6,73.35;26.6,73.35;26.7,73.45;26.7,73.45;26.65,73.55;26.65,73.55;26.55,73.45;26.55,73.45;26.7,73.45;26.7,73.45" calcMode="discrete" fill="freeze"/><path fill="#131313" stroke="none" d="M-8.15 -78.05L-35.55 -78.05 28.9 75.95Q29.45 77.2 30.7 77.8 32 78.35 33.3 77.9 34.6 77.4 35.2 76.2 35.8 74.95 35.45 73.6L-8.15 -78.05Z"/><path fill="#000" stroke="none" d="M-29.6 -78L-35.55 -78 28.9 75.95Q29.25 76.9 30.15 77.5 30.95 78.05 31.95 78.1L-29.6 -78Z"/></g><animate attributeName="display" fill="freeze" repeatCount="1" dur="0.792s" keyTimes="0;.737;1" values="inline;none;none"/></g><g><g id="Tween-3" transform="translate(220.45 303.3)"><path fill="#131313" stroke="none" d="M4.25 85.2Q5.6 85.15 6.6 84.2 7.6 83.25 7.65 81.85L13.2 -85.2 -13.15 -84.55 .7 82.05Q.8 83.45 1.85 84.35 2.85 85.25 4.25 85.2Z"/></g><animate attributeName="display" fill="freeze" repeatCount="1" dur="0.792s" keyTimes="0;.737;1" values="inline;none;none"/></g><g><g id="Tween-2" transform="translate(221.85 201)"><path fill="#131313" stroke="none" d="M19 -2.1Q19 -10.1 13.35 -15.7 7.7 -21.35 -.25 -21.35 -8.25 -21.35 -13.85 -15.7 -19.5 -10.1 -19.5 -2.1 -19.5 3.35 -16.7 7.85L-16.8 7.8Q-19.95 6.4 -21.8 9.7 -23.4 12.45 -23.4 16.8 -23.4 18.15 -22.45 19.05 -21.55 19.9 -20.1 20.1 -.1 22.7 20.15 20.1 21.55 19.9 22.45 19.05 23.45 18.15 23.45 16.8 23.45 12.55 21.55 9.6 19.4 6.25 16.3 7.8L16.2 7.85Q19 3.2 19 -2.1Z"/><path fill="#000" stroke="none" d="M1.25 -10.9Q6 -14.15 8.2 -19.4 4.15 -21.35 -.25 -21.35 -6.15 -21.35 -11.05 -18.05 -15.8 -14.85 -18 -9.6 -14 -7.6 -9.5 -7.6 -3.6 -7.6 1.25 -10.9Z"/></g><animate attributeName="display" fill="freeze" repeatCount="1" dur="0.792s" keyTimes="0;.737;1" values="inline;none;none"/></g><g id="Tween-1" transform="matrix(.982 -.19 .19 .982 186.25 157.7)"><animateTransform attributeName="transform" additive="replace" type="translate" dur="0.792s" keyTimes="0;.05299;.053;.10499;.105;.15799;.158;.20999;.21;.26299;.263;.31599;.316;.36799;.368;.57899;.579;.63099;.631;.68399;.684;.73699;.737;.78899;.789;.84199;.842;1" values="218.904,191.674;218.904,191.674;215.801,191.725;215.801,191.725;212.788,191.662;212.788,191.662;207.695,191.693;207.695,191.693;193.993,191.749;193.993,191.749;191.418,191.728;191.418,191.728;190.889,191.719;190.889,191.719;190.46,191.756;190.46,191.756;190.563,215.009;190.563,215.009;190.463,246.409;190.463,246.409;190.513,233.362;190.513,233.362;190.463,219.859;190.463,219.859;190.463,206.006;190.463,206.006;190.46,191.756;190.46,191.756" calcMode="discrete" fill="freeze"/><animateTransform attributeName="transform" additive="sum" type="rotate" dur="0.792s" keyTimes="0;.05299;.053;.10499;.105;.15799;.158;.20999;.21;.26299;.263;.31599;.316;.36799;.368;1" values="-10.971,0,0;-10.971,0,0;.386,0,0;.386,0,0;11.448,0,0;11.448,0,0;30.263,0,0;30.263,0,0;80.474,0,0;80.474,0,0;89.708,0,0;89.708,0,0;91.809,0,0;91.809,0,0;93.295,0,0;93.295,0,0" calcMode="discrete" fill="freeze"/><animateTransform attributeName="transform" additive="sum" type="scale" dur="0.792s" keyTimes="0;.05299;.053;.10499;.105;.26299;.263;1" values="1,.999;1,.999;1,1;1,1;1,.999;1,.999;1,1;1,1" calcMode="discrete" fill="freeze"/><animateTransform attributeName="transform" additive="sum" type="translate" dur="0.792s" keyTimes="0;.10499;.105;.15799;.158;.20999;.21;.26299;.263;.31599;.316;.36799;.368;.57899;.579;.68399;.684;.73699;.737;.78899;.789;.84199;.842;1" values="-25.6,-39.6;-25.6,-39.6;-25.55,-39.55;-25.55,-39.55;-25.6,-39.55;-25.6,-39.55;-25.6,-39.45;-25.6,-39.45;-25.6,-39.5;-25.6,-39.5;-25.55,-39.45;-25.55,-39.45;-25.7,-39.5;-25.7,-39.5;-25.65,-39.45;-25.65,-39.45;-25.65,-39.4;-25.65,-39.4;-25.65,-39.45;-25.65,-39.45;-25.65,-39.5;-25.65,-39.5;-25.7,-39.5;-25.7,-39.5" calcMode="discrete" fill="freeze"/><path fill="#000" stroke="none" d="M-148.75 31.65Q-149.7 31.7 -150.6 28.8 -151.5 25.85 -151.8 21.65 -152.1 17.4 -151.65 14.4 -151.25 11.4 -150.3 11.35L-161.4 12.2Q-162.5 12.3 -163.1 15.3 -163.65 18.35 -163.3 22.55 -163 26.8 -162 29.7 -160.95 32.6 -159.8 32.5L-148.75 31.65Z"/><path fill="#000" stroke="none" d="M-149.95 19.3L-150 15.15 -161.6 16Q-161.95 17.7 -161.95 20.2L-149.95 19.3Z"/><path fill="#000" stroke="none" d="M-160.2 29.5Q-161.25 26.6 -161.55 22.4 -161.85 18.15 -161.3 15.15 -160.703 12.169 -159.65 12.05L-161.45 12.2Q-162.55 12.3 -163.15 15.3 -163.7 18.35 -163.35 22.55 -163.05 26.8 -162.05 29.7 -161 32.6 -159.85 32.5L-158.05 32.35Q-159.2 32.4 -160.2 29.5Z"/><path fill="#000" stroke="none" d="M-150.6 28.8Q-149.75 31.75 -148.8 31.65 -147.85 31.6 -147.45 28.6 -147 25.55 -147.35 21.35 -147.65 17.1 -148.55 14.15 -149.4 11.25 -150.35 11.3 -151.25 11.4 -151.7 14.4 -152.15 17.5 -151.8 21.65 -151.45 25.9 -150.6 28.8Z"/><path fill="#1D1D1F" stroke="none" d="M-112.15 26.25L-113.3 11.1 -149.45 13.9Q-150.3 14 -150.7 16.25 -151.15 18.5 -150.9 21.6 -150.65 24.7 -149.9 26.9 -149.15 29.1 -148.35 29L-112.15 26.25Z"/><path fill="#313133" stroke="none" d="M-113.1 15.65L-113 15 -113.15 13.2 -150.75 16.05 -150.95 18.55 -113.1 15.65Z"/><path fill="#1D1D1F" stroke="none" d="M-114.85 8.6Q-115.7 12.95 -115.2 18.85 -114.75 24.85 -113.3 29 -111.85 33.1 -110.25 33L-5.55 25.1 -7.7 -3.8 -112.45 4.15Q-114.05 4.25 -114.85 8.6Z"/><path fill="#313133" stroke="none" d="M-10.15 5.65L-8.85 .55 -113.25 8.5 -114.15 13.5 -10.15 5.65Z"/><path fill="#000" stroke="none" d="M-112.45 3.75Q-114.05 3.85 -114.85 8.3 -115.65 12.75 -115.15 18.8 -114.7 24.95 -113.25 29.2 -111.8 33.4 -110.2 33.3L-106.7 33Q-106.6 33 -106.55 32.9 -106.5 32.8 -106.6 32.7 -108.05 31.85 -109.2 27.9 -110.45 23.85 -110.8 18.55 -111.2 13.25 -110.65 9.1 -110.05 5 -108.85 3.8 -108.75 3.75 -108.75 3.6 -108.8 3.5 -108.95 3.5L-112.45 3.75Z"/><path fill="#1D1D1F" stroke="none" d="M-6.6 -15.1Q-9.45 -14.85 -10.9 -7.25 -12.35 .4 -11.55 11.05 -10.7 21.65 -8.15 29 -5.55 36.35 -2.7 36.15L119.7 26.85 115.8 -24.45 -6.6 -15.1Z"/><path fill="#313133" stroke="none" d="M111.65 -11.05L113.05 -19.35 -8.15 -10.15 -9.05 -1.9 111.65 -11.05Z"/><path fill="#000" stroke="none" d="M-6.65 -15.5Q-9.5 -15.25 -10.95 -7.5 -12.35 .25 -11.55 11 -10.7 21.75 -8.15 29.2 -5.55 36.65 -2.7 36.4L.5 36.15Q.6 36.15 .65 36 .65 35.9 .55 35.85 -2 34.65 -4.2 27.55 -6.45 20.4 -7.2 10.7 -7.9 1 -6.8 -6.4 -5.7 -13.8 -3.35 -15.4 -3.25 -15.5 -3.3 -15.65 -3.35 -15.75 -3.45 -15.75L-6.65 -15.5Z"/><path fill="#000" stroke="none" d="M3.5 6.95Q2.1 7.05 1.2 8.15 .3 9.2 .35 10.6L.35 10.7Q1.15 21.3 3.75 28.65 6.35 36 9.2 35.8L26.4 34.5 26.7 34.45Q27.2 34.3 27.8 33.85L26.4 33.95Q23.7 34.15 21.35 26.75 19.05 19.6 18.3 9.3L18.3 9.25Q18.2 7.85 17.1 6.95 16.05 6 14.65 6.1L3.5 6.95Z"/><path fill="#000" stroke="none" d="M11.1 11.85Q11.1 11 10.55 10.45 9.95 9.85 9.15 9.85 8.35 9.85 7.75 10.45 7.15 11.05 7.15 11.85 7.15 12.7 7.75 13.25 8.35 13.85 9.15 13.85 9.95 13.85 10.55 13.25 11.1 12.7 11.1 11.85Z"/><path fill="#1D1D1F" stroke="none" d="M116.95 -33.15Q113.15 -32.85 111.25 -22.65 109.3 -12.4 110.4 1.8 111.45 15.95 114.9 25.8 118.35 35.6 122.2 35.3L159.5 32.45 154.35 -36 116.95 -33.15Z"/><path fill="#313133" stroke="none" d="M114.05 -25.4L111.95 -15.15 149.4 -18 150.75 -28.15 114.05 -25.4Z"/><path fill="#000" stroke="none" d="M116.9 -33.6Q113.1 -33.3 111.2 -22.95 109.3 -12.65 110.35 1.75 111.45 16.1 114.9 26.05 118.35 35.95 122.15 35.7L125.1 35.5Q125.25 35.5 125.3 35.35 125.3 35.2 125.15 35.1 121.7 33.45 118.75 23.95 115.75 14.35 114.8 1.45 113.85 -11.5 115.35 -21.45 116.85 -31.25 120 -33.4 120.15 -33.45 120.1 -33.65 120.05 -33.8 119.85 -33.8L116.9 -33.6Z"/><path fill="#000" stroke="none" d="M154.2 -36.4L151.75 -36.2Q149.25 -36 148.25 -25.75 147.25 -15.45 148.35 -1.1 149.45 13.25 151.95 23.25 154.5 33.3 156.95 33.05L159.4 32.85 159.5 32.85Q162 32.6 163.05 22.4 164.1 12.1 163 -2.2 161.9 -16.6 159.35 -26.55 156.8 -36.55 154.3 -36.4L154.2 -36.4Z"/><path fill="#8992AF" stroke="none" d="M154.55 -32.45Q152.25 -32.25 151.3 -23.15 150.4 -14.05 151.35 -1.35 152.3 11.35 154.6 20.25 156.9 29.1 159.2 28.95 161.5 28.75 162.4 19.65 163.35 10.55 162.4 -2.15 161.45 -14.85 159.15 -23.75 156.85 -32.6 154.55 -32.45Z"/></g></g></svg>